<svg width="100" height="100" viewBox="0 0 100 100" fill="none" xmlns="http://www.w3.org/2000/svg">
<rect width="100" height="100" fill="black"/>
<path d="M52.24 28.84C52.78 29.2 53.24 29.66 53.62 30.22C54.02 30.76 54.34 31.46 54.58 32.32C54.84 33.16 54.9 34.22 54.76 35.5C54.62 36.78 54.27 38.21 53.71 39.79C51.87 44.89 49.43 48.89 46.39 51.79C45.17 52.95 43.91 53.85 42.61 54.49C41.33 55.13 40.11 55.45 38.95 55.45C38.83 55.45 38.71 55.44 38.59 55.42C36.77 55.3 35.48 54.44 34.72 52.84C32.2 63.3 30.75 69.95 30.37 72.79C30.41 72.71 30.45 72.62 30.49 72.52C30.55 72.38 30.65 72.28 30.79 72.22C30.95 72.16 31.1 72.16 31.24 72.22C31.38 72.3 31.48 72.41 31.54 72.55C31.6 72.71 31.6 72.86 31.54 73C31.16 73.82 30.85 74.4 30.61 74.74C30.37 75.1 30.12 75.28 29.86 75.28C29.78 75.28 29.7 75.26 29.62 75.22C29.32 75.12 29.15 74.83 29.11 74.35C29.07 73.89 29.18 72.9 29.44 71.38C29.74 69.56 30.27 66.95 31.03 63.55C31.97 59.35 33.67 52.23 36.13 42.19C37.53 36.45 38.47 32.57 38.95 30.55C36.21 31.71 33.86 33.15 31.9 34.87C30.9 35.75 30.08 36.63 29.44 37.51C28.8 38.39 28.35 39.18 28.09 39.88C27.85 40.56 27.71 41.24 27.67 41.92C27.65 42.6 27.69 43.17 27.79 43.63C27.91 44.07 28.07 44.5 28.27 44.92C28.35 45.06 28.36 45.21 28.3 45.37C28.26 45.51 28.17 45.62 28.03 45.7C27.89 45.76 27.74 45.77 27.58 45.73C27.44 45.67 27.33 45.57 27.25 45.43C26.37 43.67 26.26 41.79 26.92 39.79C27.6 37.79 29 35.86 31.12 34C33.42 32 36.14 30.39 39.28 29.17C39.36 28.77 39.44 28.41 39.52 28.09C39.54 27.95 39.62 27.84 39.76 27.76C39.9 27.66 40.04 27.63 40.18 27.67C40.34 27.69 40.46 27.77 40.54 27.91C40.64 28.05 40.67 28.2 40.63 28.36C40.61 28.42 40.59 28.53 40.57 28.69C41.07 28.53 41.57 28.38 42.07 28.24C44.21 27.66 46.15 27.42 47.89 27.52C49.65 27.62 51.1 28.06 52.24 28.84ZM52.6 39.4C52.86 38.68 53.07 37.99 53.23 37.33C53.41 36.67 53.53 35.96 53.59 35.2C53.67 34.42 53.66 33.72 53.56 33.1C53.48 32.46 53.27 31.85 52.93 31.27C52.61 30.67 52.16 30.17 51.58 29.77C50.6 29.11 49.3 28.75 47.68 28.69C46.08 28.61 44.31 28.83 42.37 29.35C41.67 29.55 40.96 29.78 40.24 30.04C39.78 32.1 38.79 36.24 37.27 42.46C36.37 46.08 35.67 48.92 35.17 50.98C35.31 51.06 35.4 51.18 35.44 51.34C35.64 52.24 36.01 52.94 36.55 53.44C37.11 53.94 37.81 54.22 38.65 54.28C39.67 54.34 40.79 54.08 42.01 53.5C43.23 52.92 44.43 52.07 45.61 50.95C48.51 48.19 50.84 44.34 52.6 39.4ZM75.3651 50.98C75.5251 50.92 75.6751 50.93 75.8151 51.01C75.9751 51.07 76.0751 51.18 76.1151 51.34C76.1751 51.48 76.1751 51.62 76.1151 51.76C74.1151 56.04 72.1251 59.68 70.1451 62.68C68.1651 65.68 66.2551 67.95 64.4151 69.49C62.5951 71.03 60.9051 71.8 59.3451 71.8C58.8851 71.8 58.4351 71.73 57.9951 71.59C56.5751 71.15 55.4251 70.03 54.5451 68.23C53.6851 66.45 53.1751 64.19 53.0151 61.45C52.8551 58.73 53.0451 55.63 53.5851 52.15C54.1651 48.51 55.1551 44.75 56.5551 40.87C58.1951 36.31 59.9751 32.88 61.8951 30.58C63.4551 28.72 64.7951 28.06 65.9151 28.6C66.6951 28.98 67.2151 29.89 67.4751 31.33C67.7551 32.75 67.8051 34.54 67.6251 36.7C67.4451 38.86 67.1751 41.03 66.8151 43.21C66.4551 45.37 65.9951 47.71 65.4351 50.23C65.3951 50.37 65.3051 50.49 65.1651 50.59C65.0251 50.67 64.8751 50.69 64.7151 50.65C64.5751 50.61 64.4551 50.53 64.3551 50.41C64.2751 50.27 64.2551 50.12 64.2951 49.96C64.8951 47.28 65.3751 44.83 65.7351 42.61C66.0951 40.37 66.3251 38.5 66.4251 37C66.5451 35.5 66.5751 34.21 66.5151 33.13C66.4551 32.05 66.3251 31.24 66.1251 30.7C65.9451 30.14 65.7051 29.79 65.4051 29.65C65.1251 29.51 64.7551 29.59 64.2951 29.89C63.8351 30.19 63.3351 30.66 62.7951 31.3C61.0151 33.44 59.3751 36.56 57.8751 40.66C56.3751 44.74 55.3251 48.63 54.7251 52.33C53.9251 57.25 53.8951 61.42 54.6351 64.84C54.9751 66.4 55.4651 67.66 56.1051 68.62C56.7451 69.6 57.4951 70.22 58.3551 70.48C60.2551 71.08 62.5451 69.98 65.2251 67.18C68.3851 63.88 71.6651 58.58 75.0651 51.28C75.1251 51.14 75.2251 51.04 75.3651 50.98Z" fill="white"/>
</svg>
